<svg xmlns="http://www.w3.org/2000/svg" id="prefix__pso-chat-content-unauthorized-man" x="0" y="0" version="1.1" viewBox="0 0 174.2 191.8" xml:space="preserve"><defs/><style>.prefix__st5{fill:#2f375e}.prefix__st6{fill:none;stroke:#2f375e;stroke-width:2;stroke-miterlimit:10}.prefix__st8{fill:#5a71e5}</style><g id="prefix__Layer_1"><path fill="#ecf2f7" d="M39 178.5c0 2.1 23 3.9 51.4 3.9s51.4-1.7 51.4-3.9-23-3.9-51.4-3.9-51.4 1.8-51.4 3.9"/><path fill="#c0dff6" d="M149.9 150.4l-42.2 24.4c-10.9 6.3-24.2 6.3-35.1 0l-42.2-24.3c-10.9-6.3-17.6-17.9-17.6-30.5V71.3c0-12.5 6.7-24.1 17.5-30.4l42.2-24.4c10.9-6.3 24.2-6.3 35.1 0l42.2 24.3c10.9 6.3 17.6 17.9 17.6 30.4v48.7c0 12.6-6.7 24.2-17.5 30.5"/><path fill="#aac6e0" d="M83.5 57.9c7.1 0 12.2 8.2 6.6 15.6-7.4 5.6-15.6.5-15.6-6.6-.1-4.9 3.8-8.9 8.7-9h.3zm-36 0c7.1 0 12.2 8.2 6.6 15.6-7.4 5.6-15.6.5-15.6-6.6-.1-4.9 3.8-8.9 8.7-9h.3z"/><path fill="#728795" d="M48.5 56.9c0-2.2 1.8-4 4-4s4 1.8 4 4-1.8 4-4 4-4-1.8-4-4m26 0c0-2.2 1.8-4 4-4s4 1.8 4 4-1.8 4-4 4-4-1.8-4-4"/><path d="M80.5 70.9c-3 5.6-8.8 9-15.1 8.9-8.3 0-13.8-5.5-15.1-8.9" class="prefix__st6"/></g><g id="prefix__Layer_2"><path d="M131.8 60.8c-.8 10-7.1 17.8-14.1 17.2-7-.5-6.6-8.7-5.8-18.8.8-10 1.6-18.2 8.6-17.6 7 .6 12.1 9.2 11.3 19.2z" class="prefix__st5"/><path d="M115.5 77.7s-8.5 18-41.7 16" class="prefix__st6"/><path d="M70.5 96.2L66 94.7c-1.6-.5-2.4-2.2-1.9-3.8l.5-1.4c.5-1.6 2.2-2.4 3.8-1.9l4.5 1.5c1.6.5 2.4 2.2 1.9 3.8l-.5 1.4c-.5 1.6-2.2 2.4-3.8 1.9zM10.5 53.5C8.5 63.4 8 74 14.9 75.3s6.2-8.1 8.2-18S33.4 43.4 26.5 42c-6.9-1.3-14.1 1.6-16 11.5z" class="prefix__st5"/><path fill="none" stroke="#2f375e" stroke-miterlimit="10" stroke-width="3" d="M123.7 43.5S92.9-30.1 26.6 43"/></g><g id="prefix__Layer_8"><path d="M71 116.2h-5.4c-2.2 0-4.1-1.8-4.1-4.1l-2-9c0-2.2 1.8-4.1 4.1-4.1H73c2.2 0 4.1 1.8 4.1 4.1l-2 9c0 2.3-1.9 4.1-4.1 4.1z" class="prefix__st8"/><path d="M66.2 114.8L59 169.6l9.4 16.2.5-71z" class="prefix__st8"/><path d="M70.5 114.8l7.3 54.8-9.4 16.2-.6-71z" class="prefix__st8"/></g></svg>
